<svg xmlns="http://www.w3.org/2000/svg" xmlns:xlink="http://www.w3.org/1999/xlink" width="96" height="96" version="1"><defs><linearGradient id="i"><stop offset="0" stop-color="#2f2f2f"/><stop offset=".4" stop-color="#fff"/><stop offset=".6" stop-color="#979797"/><stop offset=".8" stop-color="#505050"/><stop offset="1" stop-color="#e6e6e6"/></linearGradient><linearGradient id="h"><stop offset="0" stop-color="#ededed"/><stop offset="1" stop-color="#b0b0b0"/></linearGradient><linearGradient id="g"><stop offset="0" stop-color="#a2a2a2"/><stop offset="1" stop-color="#fff"/></linearGradient><linearGradient id="e"><stop offset="0" stop-color="#b4b4b4"/><stop offset=".2" stop-color="#646464"/><stop offset=".5" stop-color="#fff"/><stop offset="1" stop-color="#3c3c3c"/></linearGradient><linearGradient id="f"><stop offset="0" stop-color="#fff"/><stop offset=".5" stop-color="#8c8c8c"/><stop offset=".5" stop-color="#cfcfcf"/><stop offset=".6" stop-color="#fff"/><stop offset=".8" stop-color="#c8c8c8"/><stop offset="1" stop-color="#505050"/></linearGradient><linearGradient id="b"><stop offset="0" stop-color="#818181"/><stop offset=".2" stop-color="#f9f9f9"/><stop offset="1" stop-color="#dcdcdc" stop-opacity="0"/></linearGradient><linearGradient id="c"><stop offset="0" stop-color="#dcdcdc"/><stop offset="1" stop-color="#fafafa"/></linearGradient><linearGradient id="a"><stop offset="0" stop-color="#fff"/><stop offset="1" stop-color="#fff" stop-opacity="0"/></linearGradient><linearGradient id="d"><stop offset="0" stop-color="#b4b4b4"/><stop offset="1" stop-color="#dcdcdc"/></linearGradient><linearGradient id="t" x1="19" x2="87.5" y1="74" y2="27.4" gradientUnits="userSpaceOnUse" xlink:href="#a"/><linearGradient id="q" x1="6" x2="24" y1="73" y2="73" gradientUnits="userSpaceOnUse" xlink:href="#b"/><linearGradient id="r" x1="6" x2="24" y1="73" y2="73" gradientTransform="matrix(-1 0 0 1 96 0)" gradientUnits="userSpaceOnUse" xlink:href="#b"/><linearGradient id="s" x1="38.7" x2="38.7" y1="65.6" y2="5.8" gradientUnits="userSpaceOnUse" xlink:href="#c"/><radialGradient id="p" cx="90" cy="90" r="42" fx="90" fy="90" gradientTransform="matrix(0 -1.08503 2 0 -90 187.7)" gradientUnits="userSpaceOnUse" xlink:href="#d"/><clipPath id="v"><path fill="#fff" d="M66 6v55a3 3 0 0 0 3 3h6a3 3 0 0 0 3-3V6h-4v2h-4V6h-4z"/></clipPath><filter id="w" width="1.3" height="1.1" x="-.2" y="0" color-interpolation-filters="sRGB"><feGaussianBlur stdDeviation=".9"/></filter><linearGradient id="u" x1="68.8" x2="75.3" y1="59" y2="59" gradientTransform="translate(0 -1)" gradientUnits="userSpaceOnUse" xlink:href="#e"/><linearGradient id="x" x1="69" x2="73" y1="54" y2="54" gradientTransform="translate(0 -1)" gradientUnits="userSpaceOnUse" xlink:href="#f"/><linearGradient id="M" x1="63.5" x2="79" y1="64.2" y2="65" gradientUnits="userSpaceOnUse" xlink:href="#g"/><filter id="N" width="1.3" height="1.2" x="-.2" y="-.1" color-interpolation-filters="sRGB"><feGaussianBlur stdDeviation=".5"/></filter><linearGradient id="P" x1="69" x2="75.1" y1="17.5" y2="17.5" gradientTransform="matrix(-1 0 0 1 144 -2)" gradientUnits="userSpaceOnUse" xlink:href="#h"/><linearGradient id="O" x1="68" x2="76" y1="17.8" y2="17.8" gradientTransform="translate(0 -2)" gradientUnits="userSpaceOnUse" xlink:href="#h"/><linearGradient id="Q" x1="68.8" x2="72.3" y1="59" y2="59" gradientTransform="matrix(1.12627 0 0 1 -7.4 -49.5)" gradientUnits="userSpaceOnUse" xlink:href="#e"/><linearGradient id="F" x1="69" x2="73" y1="54" y2="54" gradientTransform="matrix(-1 0 0 1 144 -4)" gradientUnits="userSpaceOnUse" xlink:href="#i"/><linearGradient id="j" x1="45.4" x2="45.4" y1="92.5" y2="7" gradientTransform="matrix(1.00587 0 0 .99417 100 0)" gradientUnits="userSpaceOnUse"><stop offset="0"/><stop offset="1" stop-opacity=".6"/></linearGradient><linearGradient id="l" x1="32.3" x2="32.3" y1="6.1" y2="90.2" gradientTransform="matrix(1.0238 0 0 1.0119 -1.1 -98)" gradientUnits="userSpaceOnUse" xlink:href="#j"/><linearGradient id="m" x1="32.3" x2="32.3" y1="6.1" y2="90.2" gradientTransform="matrix(1.0238 0 0 1.0119 -1.1 -98)" gradientUnits="userSpaceOnUse" xlink:href="#j"/><linearGradient id="n" x1="32.3" x2="32.3" y1="6.1" y2="90.2" gradientTransform="matrix(1.0238 0 0 1.0119 -1.1 -98)" gradientUnits="userSpaceOnUse" xlink:href="#j"/><linearGradient id="o" x1="32.3" x2="32.3" y1="6.1" y2="90.2" gradientTransform="translate(0 -97)" gradientUnits="userSpaceOnUse" xlink:href="#j"/><linearGradient id="k" x1="32.3" x2="32.3" y1="6.1" y2="90.2" gradientTransform="matrix(1.0238 0 0 1.0119 -1.1 -98)" gradientUnits="userSpaceOnUse" xlink:href="#j"/></defs><g transform="scale(1 -1)"><path fill="url(#k)" d="M12-95A10 10 0 0 0 2-85v71A10 10 0 0 0 12-4h72a10 10 0 0 0 10-10v-71a10 10 0 0 0-10-10H12z" opacity=".1"/><path fill="url(#l)" d="M12-94c-5 0-9 4-9 9v71c0 5 4 9 9 9h72c5 0 9-4 9-9v-71c0-5-4-9-9-9H12z" opacity=".1"/><path fill="url(#m)" d="M12-93a8 8 0 0 0-8 8v71a8 8 0 0 0 8 8h72a8 8 0 0 0 8-8v-71a8 8 0 0 0-8-8H12z" opacity=".2"/><rect width="86" height="85" x="5" y="-92" fill="url(#n)" opacity=".3" rx="7" ry="7"/><rect width="84" height="84" x="6" y="-91" fill="url(#o)" opacity=".5" rx="6" ry="6"/></g><path fill="url(#p)" d="M12 6a6 6 0 0 0-6 6v72a6 6 0 0 0 6 6h72a6 6 0 0 0 6-6V12a6 6 0 0 0-6-6h-9v3h-6V6H12z"/><path fill="url(#q)" d="M6 56v28a6 6 0 0 0 6 6h12V56H6z"/><path fill="url(#r)" d="M90 56v28a6 6 0 0 1-6 6H72V56h18z"/><path d="M6 82v2a6 6 0 0 0 6 6h72a6 6 0 0 0 6-6v-2a6 6 0 0 1-6 6H12a6 6 0 0 1-6-6z" opacity=".1"/><path fill="#fff" d="M6 78v2a6 6 0 0 0 6 6h72a6 6 0 0 0 6-6v-2a6 6 0 0 1-6 6H12a6 6 0 0 1-6-6z" opacity=".8"/><path d="M6 76v2a6 6 0 0 0 6 6h72a6 6 0 0 0 6-6v-2a6 6 0 0 1-6 6H12a6 6 0 0 1-6-6z" opacity=".1"/><path fill="#fff" d="M6 72v2a6 6 0 0 0 6 6h72a6 6 0 0 0 6-6v-2a6 6 0 0 1-6 6H12a6 6 0 0 1-6-6z" opacity=".8"/><path d="M6 70v2a6 6 0 0 0 6 6h72a6 6 0 0 0 6-6v-2a6 6 0 0 1-6 6H12a6 6 0 0 1-6-6z" opacity=".1"/><path fill="url(#s)" d="M12 6a6 6 0 0 0-6 6v56a6 6 0 0 0 6 6h72a6 6 0 0 0 6-6V12a6 6 0 0 0-6-6h-9v3h-6V6H12z"/><path fill="url(#t)" d="M12 6a6 6 0 0 0-6 6v56a6 6 0 0 0 6 6h72a6 6 0 0 0 6-6V12a6 6 0 0 0-6-6h-9v2h9a4 4 0 0 1 4 4v56a4 4 0 0 1-4 4H12a4 4 0 0 1-4-4V12a4 4 0 0 1 4-4h57V6H12z"/><path fill="#252525" d="M66 6v55a3 3 0 0 0 3 3h6a3 3 0 0 0 3-3V6h-4v2h-4V6h-4z"/><path fill="#4d4d4d" d="M70 8h4v49h-4z"/><rect width="6" height="4" x="69" y="56" fill="url(#u)" stroke="#000" stroke-linecap="square" stroke-opacity=".6" stroke-width=".5" rx="1" ry="1"/><path fill="none" stroke="#000" stroke-linecap="square" stroke-width="2" d="M66 6v55a3 3 0 0 0 3 3h6a3 3 0 0 0 3-3V6h-4v2h-4V6h-4z" clip-path="url(#v)" filter="url(#w)"/><path id="y" fill="url(#x)" stroke="#000" stroke-linecap="square" stroke-opacity=".6" stroke-width=".5" d="M69.5 51c-.3 0-.5.2-.5.5v3c0 .3.2.5.5.5h1c.3 0 .5-.2.5-.5V54h1.5c.3 0 .5-.2.5-.5v-1c0-.3-.2-.5-.5-.5H71v-.5c0-.3-.2-.5-.5-.5h-1z"/><use id="z" width="96" height="96" transform="translate(0 -6)" xlink:href="#y"/><use id="A" width="96" height="96" transform="translate(0 -6)" xlink:href="#z"/><use id="B" width="96" height="96" transform="translate(0 -6)" xlink:href="#A"/><use id="C" width="96" height="96" transform="translate(0 -6)" xlink:href="#B"/><use id="D" width="96" height="96" transform="translate(0 -6)" xlink:href="#C"/><use id="E" width="96" height="96" transform="translate(0 -6)" xlink:href="#D"/><use width="96" height="96" transform="translate(0 -6)" xlink:href="#E"/><path id="G" fill="url(#F)" stroke="#000" stroke-linecap="square" stroke-opacity=".6" stroke-width=".5" d="M74.5 48c.3 0 .5.2.5.5v3c0 .3-.2.5-.5.5h-1a.5.5 0 0 1-.5-.5V51h-1.5a.5.5 0 0 1-.5-.5v-1c0-.3.2-.5.5-.5H73v-.5c0-.3.2-.5.5-.5h1z"/><use id="H" width="96" height="96" transform="translate(0 -6)" xlink:href="#G"/><use id="I" width="96" height="96" transform="translate(0 -6)" xlink:href="#H"/><use id="J" width="96" height="96" transform="translate(0 -6)" xlink:href="#I"/><use id="K" width="96" height="96" transform="translate(0 -6)" xlink:href="#J"/><use id="L" width="96" height="96" transform="translate(0 -6)" xlink:href="#K"/><use width="96" height="96" transform="translate(0 -6)" xlink:href="#L"/><path fill="url(#M)" d="M65 6v55a4 4 0 0 0 4 4h6a4 4 0 0 0 4-4V6h-1v55a3 3 0 0 1-3 3h-6a3 3 0 0 1-3-3V6h-1z"/><path stroke="#000" stroke-linecap="square" stroke-opacity=".6" stroke-width=".5" d="M69.5 10.5c-1 0-2 .8-2 1.8v10.9c0 1 1 1.8 2 1.8h5c1 0 2-.8 2-1.8V12.3c0-1-1-1.8-2-1.8h-5zm1 9h3v1.8h-3v-1.7z" filter="url(#N)" transform="translate(0 -2)"/><path fill="url(#O)" d="M69.2 9c-.7 0-1.2.5-1.2 1.1v10.8c0 .6.5 1.1 1.2 1.1h5.6c.7 0 1.2-.5 1.2-1V10c0-.6-.5-1-1.2-1h-5.6zm.7 8H74v3h-4v-3z"/><path fill="url(#P)" d="M74.6 10c.2 0 .5.2.5.5v10c0 .3-.3.5-.5.5h-5.1a.5.5 0 0 1-.5-.5v-10c0-.3.2-.5.5-.5h5zm-.5 7H70v3h4.1v-3z"/><rect width="3.4" height="5" x="70.3" y="7.5" fill="url(#Q)" stroke="#000" stroke-linecap="square" stroke-opacity=".6" rx=".6" ry=".5"/><path d="M70 16h4v1h-4z" opacity=".3"/></svg>