<svg xmlns="http://www.w3.org/2000/svg" xmlns:xlink="http://www.w3.org/1999/xlink" width="175" height="200" version="1" viewBox="0 0 46 53"><defs><linearGradient id="j" x1="413" x2="482" y1="357" y2="357" gradientTransform="translate(643 -1191) scale(4.95289)" gradientUnits="userSpaceOnUse" xlink:href="#a"/><linearGradient id="a"><stop offset="0" stop-color="#60a016"/><stop offset="0" stop-color="#98e90d"/><stop offset="0" stop-color="#64a616"/><stop offset="1" stop-color="#99ea0c"/><stop offset="1" stop-color="#61a017"/></linearGradient><radialGradient id="k" cx="448" cy="354" r="34" fx="448" fy="354" gradientTransform="matrix(4.9529 0 0 .83705 643 267)" gradientUnits="userSpaceOnUse" xlink:href="#b"/><linearGradient id="b"><stop offset="0" stop-color="#aff637"/><stop offset="1" stop-color="#5f9f16"/></linearGradient><linearGradient id="l" x1="580" x2="580" y1="288" y2="336" gradientTransform="translate(-46 -1244) scale(4.95289)" gradientUnits="userSpaceOnUse" xlink:href="#c"/><linearGradient id="c"><stop offset="0" stop-color="#a4bcc3"/><stop offset="1" stop-color="#b9d1da" stop-opacity="0"/></linearGradient><linearGradient id="m" x1="543" x2="631" y1="284" y2="284" gradientTransform="matrix(4.9529 0 0 4.84448 -46 -1201)" gradientUnits="userSpaceOnUse" xlink:href="#d"/><linearGradient id="d"><stop offset="0" stop-color="#9beb0a"/><stop offset="0" stop-color="#90e612"/><stop offset="0" stop-color="#6fbb16"/><stop offset="1" stop-color="#8ee518"/><stop offset="1" stop-color="#89e31f"/></linearGradient><linearGradient id="n" x1="23" x2="86" y1="7" y2="141" gradientTransform="matrix(3.07055 0 0 3.13001 2739 257)" gradientUnits="userSpaceOnUse" xlink:href="#e"/><linearGradient id="e"><stop offset="0" stop-color="#6eb314"/><stop offset="1" stop-color="#97e70d" stop-opacity="0"/></linearGradient><linearGradient id="o" x1="560" x2="567" y1="275" y2="361" gradientTransform="translate(464 39)" gradientUnits="userSpaceOnUse" xlink:href="#f"/><linearGradient id="f"><stop offset="0" stop-color="#fff"/><stop offset="1" stop-color="#fff" stop-opacity="0"/></linearGradient><filter id="p" width="1" height="1" x="0" y="0" color-interpolation-filters="sRGB"><feGaussianBlur/></filter><linearGradient id="q" x1="618" x2="608" y1="275" y2="362" gradientTransform="translate(471 39)" gradientUnits="userSpaceOnUse" xlink:href="#f"/><filter id="r" width="1" height="1" x="0" y="0" color-interpolation-filters="sRGB"><feGaussianBlur/></filter><linearGradient id="s" x1="413" x2="482" y1="357" y2="357" gradientTransform="matrix(6.30935 0 0 6.17125 37 -2027)" gradientUnits="userSpaceOnUse" xlink:href="#a"/><linearGradient id="t" x1="560" x2="567" y1="275" y2="361" gradientTransform="translate(-76 -1276) scale(4.95289)" gradientUnits="userSpaceOnUse" xlink:href="#f"/><linearGradient id="u" x1="2121" x2="2087" y1="1161" y2="835" gradientTransform="matrix(.33568 0 0 .28176 2133 -120)" gradientUnits="userSpaceOnUse" xlink:href="#g"/><linearGradient id="g"><stop offset="0" stop-color="#fff"/><stop offset="1" stop-color="#89d30e"/></linearGradient><linearGradient id="v" x1="618" x2="608" y1="275" y2="362" gradientTransform="translate(-24 -1270) scale(4.95289)" gradientUnits="userSpaceOnUse" xlink:href="#f"/><linearGradient id="w" x1="545" x2="629" y1="281" y2="281" gradientTransform="matrix(4.9529 0 0 4.84448 -46 -1201)" gradientUnits="userSpaceOnUse" xlink:href="#h"/><linearGradient id="h"><stop offset="0" stop-color="#5f9d16"/><stop offset="0" stop-color="#8fdd0f"/><stop offset="1" stop-color="#65a816"/><stop offset="1" stop-color="#88d40f"/><stop offset="1" stop-color="#5f9d16"/></linearGradient><linearGradient id="x" x1="571" x2="557" y1="374" y2="237" gradientTransform="matrix(1.2687 0 0 1.12163 2134 -136)" gradientUnits="userSpaceOnUse" xlink:href="#i"/><linearGradient id="i"><stop offset="0"/><stop offset="1" stop-opacity="0"/></linearGradient><filter id="y" width="1" height="1" x="0" y="0" color-interpolation-filters="sRGB"><feGaussianBlur stdDeviation="3"/></filter></defs><g transform="matrix(.10238 0 0 .10238 -32 8.8)"><path fill="url(#j)" d="M540 339a171 30 0 0 0-172 30 171 30 0 0 0 0 1l4 21v2h1a167 30 0 0 0 167 28 167 30 0 0 0 167-29l4-23a171 30 0 0 0-171-30z"/><ellipse cx="540" cy="369" fill="#599714" rx="171" ry="30"/><ellipse cx="540" cy="368" fill="url(#k)" rx="166" ry="28"/><path fill="url(#l)" d="M746-28H335l38 398c0 2 2 3 4 5l10 5c8 4 21 7 36 9a764 764 0 0 0 271-9l10-5 3-4z"/><path fill="url(#m)" d="M539-72a218 38 0 0 0-218 37 218 38 0 0 0 0 1l5 26a213 38 0 0 0 0 1l1 1a213 38 0 0 0 212 36A213 38 0 0 0 752-6h1l5-29a218 38 0 0 0-219-37z"/><path fill="url(#n)" fill-rule="evenodd" d="M580 67h-68c14 4 23 15 31 29l21 39-16 10h56l30-49-18 9-12-23c-4-8-15-16-24-15zm-76 2c-5 0-10 2-15 6l-28 44 53 31 28-46c-8-17-23-35-38-35zm136 77l-52 32 25 48c25 1 57-8 51-33zm-162 1h-58l17 13-16 30c-7 14 6 27 14 32 9 4 22 5 34 4l21-35 17 9zm98 65l-28 50 28 50v-20h26c9 1 21-5 25-14l33-61c-11 11-25 13-41 13h-42zm-153 4l35 65c7 9 20 11 34 11h38v-62h-71c-11 1-25-2-36-14z"/><path fill="url(#o)" d="M553 292l7 71h9l-8-70z" filter="url(#p)" transform="translate(-2366 -1440) scale(4.95289)"/><path fill="url(#q)" d="M622 292l-7 71h-9l7-70z" filter="url(#r)" transform="translate(-2366 -1440) scale(4.95289)"/><path fill="url(#s)" d="M321-35a218 38 0 0 0 0 1l5 26a213 38 0 0 0 0 1l1 1a213 38 0 0 0 212 36A213 38 0 0 0 752-6h1l4-24A219 37 0 0 1 541 1a219 37 0 0 1-220-36z"/><path fill="url(#t)" d="M363-14l3 28a213 38 0 0 0 44 8l-3-29a219 37 0 0 1-44-7z" filter="url(#p)"/><path style="line-height:normal;font-variant-ligatures:normal;font-variant-position:normal;font-variant-caps:normal;font-variant-numeric:normal;font-variant-alternates:normal;font-feature-settings:normal;text-indent:0;text-align:start;text-decoration-line:none;text-decoration-style:solid;text-decoration-color:#000;text-transform:none;text-orientation:mixed;shape-padding:0;isolation:auto;mix-blend-mode:normal" fill="url(#u)" d="M321-35a218 38 0 0 0 0 1l1 4c3 5 11 9 22 13 12 3 27 7 43 9a1064 1064 0 0 0 345-7c11-4 19-7 24-11l1-4A219 37 0 0 1 541 1a219 37 0 0 1-220-36z" color="#000" enable-background="accumulate" font-family="sans-serif" font-weight="400" overflow="visible" white-space="normal"/><path fill="url(#v)" d="M725-16a219 37 0 0 1-44 8l-3 29a213 38 0 0 0 44-9z" filter="url(#r)"/><ellipse cx="541" cy="-37" fill="url(#w)" rx="209" ry="31"/><path fill="#5f9d16" d="M321-35a218 38 0 0 0 0 1l1 1a223 37 0 0 0 1 1 219 37 0 0 1-2-3zM751-3a217 38 0 0 1-212 29A217 38 0 0 1 328-3a213 38 0 0 0 211 33A213 38 0 0 0 751-3z"/><ellipse cx="542" cy="-36" fill="url(#x)" rx="209" ry="31"/><path fill="#609f16" d="M541-68a209 31 0 0 0-209 31 209 31 0 0 0 0 1 209 31 0 0 1 209-30 209 31 0 0 1 209 30 209 31 0 0 0 0-1 209 31 0 0 0-209-31z"/><path fill="#fff" d="M721-21a209 31 0 0 1-46 8l6 5a219 37 0 0 0 43-8zm-349 2l-8 5 44 7 9-5c-17-2-33-4-45-7z"/><g fill="#fff"><path d="M728 0l-4-13-13 3 12-4-2-14 4 13 13-3-13 4z"/><path d="M733-7l-9-6-7 8 7-9-8-7 8 6 7-7-6 8z"/><path d="M730-4l-6-9-9 5 9-6-5-9 5 8 10-4-9 5z"/><path d="M722-3l2-10-10-3 10 2 2-11-1 11 10 2-10-1z"/></g><path fill="#fff" d="M720-28l2 9-3-4 3 6-6-4 6 6-8-1v1l7 1-11 4h1l9-2-5 4 6-3-4 5 1 1 5-6-1 8h1l2-8 3 11h1l-3-9 4 5-3-7 6 5v-1l-6-6 8 2v-1l-7-2 10-3v-1l-9 2 5-3v-1l-7 4 5-6h-1l-5 6 1-9h-1l-2 8-3-11z" filter="url(#y)"/></g></svg>